HIERARCHY
ROOT Pelvis
{
	OFFSET 0.000000 0.941512 0.000000
	CHANNELS 6 Xposition Yposition Zposition Zrotation Yrotation Xrotation 
	JOINT Pelvis_L_Hip
	{
		OFFSET 0.000000 0.000000 0.000000
		CHANNELS 3 Zrotation Yrotation Xrotation
		JOINT L_Hip
		{
			OFFSET 0.062321 -0.080322 -0.016990
			CHANNELS 3 Zrotation Yrotation Xrotation
			JOINT L_Knee
			{
				OFFSET 0.093051 -0.381305 -0.029784
				CHANNELS 3 Zrotation Yrotation Xrotation
				JOINT L_Ankle
				{
					OFFSET -0.010371 -0.431000 -0.033614
					CHANNELS 3 Zrotation Yrotation Xrotation
					End Site #name: L_Foot
					{
						OFFSET 0.069299 -0.038670 0.119418
					}
				}
			}
		}
	}
	JOINT Pelvis_R_Hip
	{
		OFFSET 0.000000 0.000000 0.000000
		CHANNELS 3 Zrotation Yrotation Xrotation
		JOINT R_Hip
		{
			OFFSET -0.055334 -0.094904 -0.002373
			CHANNELS 3 Zrotation Yrotation Xrotation
			JOINT R_Knee
			{
				OFFSET -0.064207 -0.384370 -0.019592
				CHANNELS 3 Zrotation Yrotation Xrotation
				JOINT R_Ankle
				{
					OFFSET 0.025418 -0.419734 -0.065953
					CHANNELS 3 Zrotation Yrotation Xrotation
					End Site #name: R_Foot
					{
						OFFSET -0.057233 -0.039888 0.132134
					}
				}
			}
		}
	}
	JOINT Pelvis_Spine1
	{
		OFFSET 0.000000 0.000000 0.000000
		CHANNELS 3 Zrotation Yrotation Xrotation
		JOINT Spine1
		{
			OFFSET -0.005562 0.124093 -0.043360
			CHANNELS 3 Zrotation Yrotation Xrotation
			JOINT Spine2
			{
				OFFSET 0.012244 0.139499 0.029894
				CHANNELS 3 Zrotation Yrotation Xrotation
				JOINT Spine3
				{
					OFFSET -0.002556 0.056561 0.009225
					CHANNELS 3 Zrotation Yrotation Xrotation
					JOINT Spine3_Neck
					{
						OFFSET 0.000000 0.000000 0.000000
						CHANNELS 3 Zrotation Yrotation Xrotation
						JOINT Neck
						{
							OFFSET -0.005205 0.217920 -0.024551
							CHANNELS 3 Zrotation Yrotation Xrotation
							End Site #name: Head
							{
								OFFSET 0.002365 0.091850 0.046637
							}
						}
					}
					JOINT Spine3_L_Collar
					{
						OFFSET 0.000000 0.000000 0.000000
						CHANNELS 3 Zrotation Yrotation Xrotation
						JOINT L_Collar
						{
							OFFSET 0.072225 0.116603 -0.009480
							CHANNELS 3 Zrotation Yrotation Xrotation
							JOINT L_Shoulder
							{
								OFFSET 0.115937 -0.058643 -0.021018
								CHANNELS 3 Zrotation Yrotation Xrotation
								JOINT L_Elbow
								{
									OFFSET 0.021994 -0.254722 -0.024492
									CHANNELS 3 Zrotation Yrotation Xrotation
									End Site #name: L_Wrist
									{
										OFFSET 0.048810 -0.240214 0.103329
									}
								}
							}
						}
					}
					JOINT Spine3_R_Collar
					{
						OFFSET 0.000000 0.000000 0.000000
						CHANNELS 3 Zrotation Yrotation Xrotation
						JOINT R_Collar
						{
							OFFSET -0.073372 0.120704 -0.024611
							CHANNELS 3 Zrotation Yrotation Xrotation
							JOINT R_Shoulder
							{
								OFFSET -0.108089 -0.054969 -0.020504
								CHANNELS 3 Zrotation Yrotation Xrotation
								JOINT R_Elbow
								{
									OFFSET -0.033684 -0.260739 0.009889
									CHANNELS 3 Zrotation Yrotation Xrotation
									End Site #name: R_Wrist
									{
										OFFSET -0.067980 -0.232763 0.118463
									}
								}
							}
						}
					}
				}
			}
		}
	}
}
MOTION
Frames: 14
Frame Time: 0.041667
0.000000 0.949323 0.000000 -1.683176 -3.528786 -1.129211 0.000000 0.000000 0.000000 -8.610415 0.210079 -1.376045 9.487839 -1.523607 7.202241 -0.836866 -5.232476 -1.360174 0.000000 0.000000 0.000000 5.074947 0.218606 -2.261158 -8.132065 1.653558 2.768255 3.139018 10.958663 -0.108427 0.000000 0.000000 0.000000 6.646998 0.060639 -10.195687 -5.080858 6.551181 48.495122 -0.878093 0.655469 -43.362182 0.000000 0.000000 0.000000 -2.663858 1.180778 25.543025 0.000000 0.000000 0.000000 16.327069 -2.822232 0.903080 -6.428248 1.061433 5.482504 -8.686524 -5.534639 -5.274714 0.000000 0.000000 0.000000 -12.925972 -1.969240 3.697299 10.214766 -1.310615 10.137821 4.209928 2.780462 -1.718014 
0.002495 0.948561 0.001432 -1.867576 -3.753343 -1.074804 0.000000 0.000000 0.000000 -8.594064 -0.002245 -2.024579 9.346440 -1.642385 8.547699 -0.490132 -4.758404 -1.713189 0.000000 0.000000 0.000000 5.156691 0.221716 -2.293736 -8.187094 1.664384 2.776068 3.155188 11.064710 -0.134888 0.000000 0.000000 0.000000 6.993127 -0.065157 -9.641462 -5.405463 6.676238 47.664224 -0.792043 0.861321 -42.937789 0.000000 0.000000 0.000000 -2.856615 1.322569 25.376870 0.000000 0.000000 0.000000 16.330179 -2.911176 0.846648 -6.752226 1.115564 5.637398 -8.579391 -5.433367 -5.144576 0.000000 0.000000 0.000000 -12.976562 -1.360884 3.304836 10.281838 -1.249772 9.845099 4.258087 2.695524 -1.413115 
0.006232 0.948431 0.003548 -1.921673 -4.193799 -0.909315 0.000000 0.000000 0.000000 -8.814479 -0.067508 -2.268443 9.295705 -1.676563 8.968342 -0.516679 -4.285567 -1.430771 0.000000 0.000000 0.000000 5.130998 0.306893 -2.705498 -8.477385 1.778277 3.199678 3.298713 11.173588 0.072815 0.000000 0.000000 0.000000 7.040103 -0.131135 -9.267789 -5.577124 6.850344 47.512685 -0.695550 1.116774 -43.015483 0.000000 0.000000 0.000000 -3.043106 1.456235 24.916062 0.000000 0.000000 0.000000 16.146921 -2.799762 0.891911 -6.882546 1.153522 5.817494 -8.418551 -5.268266 -4.895258 0.000000 0.000000 0.000000 -12.811084 -0.796057 2.891754 9.938840 -1.171362 9.473830 4.452924 2.780566 -1.356991 
0.010342 0.948927 0.005671 -1.902583 -4.646487 -0.791318 0.000000 0.000000 0.000000 -9.104998 0.168489 -1.610033 9.345007 -1.564618 7.805474 -0.862208 -4.285648 -0.837460 0.000000 0.000000 0.000000 5.145659 0.418478 -3.244669 -8.907303 1.971891 3.958851 3.294589 11.068308 0.116524 0.000000 0.000000 0.000000 6.950726 -0.181726 -8.876662 -5.635474 6.933561 47.256966 -0.620357 1.279953 -42.941680 0.000000 0.000000 0.000000 -3.189810 1.572559 24.546466 0.000000 0.000000 0.000000 16.149432 -2.799651 0.883571 -7.064586 1.214315 6.104190 -8.308563 -5.081128 -4.497033 0.000000 0.000000 0.000000 -12.849432 -0.408359 2.651594 9.786710 -1.092394 9.103149 4.676576 3.073080 -1.821451 
0.014462 0.949476 0.007253 -1.928290 -4.828613 -0.692865 0.000000 0.000000 0.000000 -9.368754 0.489135 -0.709689 9.466177 -1.409336 6.132728 -1.111009 -4.500661 -0.521095 0.000000 0.000000 0.000000 5.014289 0.458623 -3.428322 -9.066438 2.040437 4.205122 3.248408 10.962723 0.084637 0.000000 0.000000 0.000000 7.002447 -0.241410 -8.536716 -5.505702 6.837119 46.985229 -0.759335 1.104129 -42.816624 0.000000 0.000000 0.000000 -3.190260 1.592973 24.273764 0.000000 0.000000 0.000000 16.287972 -2.973902 0.766631 -7.095580 1.280105 6.507260 -8.370973 -4.980870 -4.094461 0.000000 0.000000 0.000000 -13.034946 -0.415374 2.713412 9.902012 -1.012608 8.754608 4.963009 3.619456 -2.856796 
0.018736 0.949508 0.007655 -2.047078 -4.647503 -0.237296 0.000000 0.000000 0.000000 -9.596810 0.571059 -0.546820 9.698565 -1.305417 4.868059 -1.358138 -4.821868 -0.264597 0.000000 0.000000 0.000000 4.802242 0.502029 -3.631499 -9.016081 1.964780 3.766641 3.309841 10.851825 0.257849 0.000000 0.000000 0.000000 7.117075 -0.242932 -8.663729 -5.249872 6.643278 47.005209 -0.923775 0.796823 -42.936370 0.000000 0.000000 0.000000 -3.164232 1.587835 24.292810 0.000000 0.000000 0.000000 16.265957 -3.234794 0.562144 -6.874543 1.298616 6.775637 -8.509507 -4.921834 -3.697880 0.000000 0.000000 0.000000 -13.078319 -0.709173 2.928759 9.853590 -0.977982 8.604465 5.305369 4.293346 -4.102465 
0.023370 0.949327 0.007625 -2.181543 -4.277335 0.355434 0.000000 0.000000 0.000000 -9.771407 0.417592 -1.078227 9.812417 -1.282158 4.531918 -1.436797 -5.141392 -0.297382 0.000000 0.000000 0.000000 4.595885 0.563951 -3.927214 -8.939537 1.871079 3.232299 3.352801 10.667300 0.438740 0.000000 0.000000 0.000000 7.090620 -0.186709 -9.050810 -5.061070 6.473918 47.099477 -0.896042 0.673088 -43.109592 0.000000 0.000000 0.000000 -3.199947 1.610649 24.524238 0.000000 0.000000 0.000000 16.272747 -3.381094 0.459761 -6.725174 1.267680 6.677118 -8.503642 -4.837731 -3.445255 0.000000 0.000000 0.000000 -13.004807 -1.050944 3.136281 9.683236 -0.974634 8.576858 5.577476 4.738509 -4.828981 
0.028139 0.949088 0.007693 -2.281162 -3.929993 0.680367 0.000000 0.000000 0.000000 -9.904984 0.162679 -1.882309 9.678108 -1.349996 5.321237 -1.231220 -5.309414 -0.733366 0.000000 0.000000 0.000000 4.336525 0.557113 -3.878656 -8.833961 1.759250 2.601415 3.343944 10.559573 0.483351 0.000000 0.000000 0.000000 7.011989 -0.161852 -9.161104 -5.128150 6.432014 46.942010 -0.740872 0.775938 -43.058069 0.000000 0.000000 0.000000 -3.232723 1.616820 24.666812 0.000000 0.000000 0.000000 16.380956 -3.368054 0.503926 -6.777733 1.214975 6.292101 -8.236602 -4.712425 -3.465136 0.000000 0.000000 0.000000 -12.999760 -1.101776 3.156486 9.810568 -0.983145 8.620638 5.526911 4.667866 -4.727540 
0.033386 0.948748 0.007882 -2.421264 -3.677452 0.895184 0.000000 0.000000 0.000000 -10.031092 -0.156607 -2.865100 9.443084 -1.470238 6.752781 -0.800173 -5.312281 -1.465588 0.000000 0.000000 0.000000 4.128890 0.578898 -3.968752 -8.762915 1.727700 2.470240 3.186603 10.574925 0.182650 0.000000 0.000000 0.000000 6.977296 -0.178673 -9.027905 -5.372820 6.494686 46.625870 -0.533264 1.072506 -43.006981 0.000000 0.000000 0.000000 -3.210083 1.567900 24.662018 0.000000 0.000000 0.000000 16.399541 -3.194186 0.659166 -6.807246 1.149554 5.840337 -8.044985 -4.683363 -3.669094 0.000000 0.000000 0.000000 -13.059869 -0.946961 3.045749 9.986552 -1.006414 8.732779 5.415840 4.286625 -3.922947 
0.039803 0.948279 0.008830 -2.602151 -3.527460 1.030836 0.000000 0.000000 0.000000 -10.298062 -0.362167 -3.525703 9.377540 -1.577752 7.874508 -0.315427 -5.386816 -2.325589 0.000000 0.000000 0.000000 4.054983 0.762533 -4.862854 -8.839002 1.982832 4.127677 2.628369 10.449325 -0.804220 0.000000 0.000000 0.000000 6.940301 -0.187751 -8.936587 -5.547612 6.562032 46.508462 -0.354559 1.397206 -43.018289 0.000000 0.000000 0.000000 -3.087545 1.445284 24.643345 0.000000 0.000000 0.000000 16.320563 -2.987223 0.820995 -6.735881 1.092771 5.508116 -8.137815 -4.792920 -3.865768 0.000000 0.000000 0.000000 -12.999029 -0.688991 2.837716 9.816231 -1.038549 8.850638 5.291556 3.802546 -2.852673 
0.047399 0.947469 0.010963 -2.651336 -3.387353 0.943714 0.000000 0.000000 0.000000 -10.833032 -0.327960 -3.505370 9.448967 -1.631412 8.285299 0.068740 -5.873749 -3.214055 0.000000 0.000000 0.000000 4.049265 1.173839 -6.862380 -9.095852 2.691642 8.486830 1.528844 9.743017 -2.544784 0.000000 0.000000 0.000000 6.601747 -0.158188 -8.811620 -5.463427 6.486362 46.552195 -0.253291 1.579471 -42.933077 0.000000 0.000000 0.000000 -2.727989 1.164559 24.769388 0.000000 0.000000 0.000000 16.452164 -2.865463 0.952249 -6.865284 1.075449 5.321628 -8.358194 -4.942337 -3.990090 0.000000 0.000000 0.000000 -12.910553 -0.553276 2.713636 9.565662 -1.032686 8.785713 4.902734 3.235198 -1.924071 
0.055441 0.945783 0.013529 -2.296372 -3.170298 0.649445 0.000000 0.000000 0.000000 -11.751454 -0.151170 -3.125533 9.381769 -1.635402 8.417826 0.412112 -6.478993 -4.077529 0.000000 0.000000 0.000000 3.743655 1.875834 -10.310652 -9.128571 3.899710 16.104011 0.126312 8.040749 -4.444174 0.000000 0.000000 0.000000 5.820213 -0.122271 -8.272173 -5.184713 6.259464 46.507676 -0.386342 1.482070 -42.810983 0.000000 0.000000 0.000000 -2.133806 0.725706 24.855734 0.000000 0.000000 0.000000 16.836107 -2.900918 1.007189 -6.949178 1.059334 5.166964 -8.779388 -5.156384 -4.002076 0.000000 0.000000 0.000000 -12.755763 -0.641011 2.732571 9.437935 -0.986669 8.549665 4.249517 2.696708 -1.428540 
0.062415 0.944275 0.017215 -1.758443 -3.019198 0.111361 0.000000 0.000000 0.000000 -12.768089 0.204634 -2.271142 9.268755 -1.604521 8.283753 0.707493 -6.823197 -4.730766 0.000000 0.000000 0.000000 3.383581 2.777374 -14.821107 -8.644555 5.426583 26.343485 -0.634549 5.782663 -4.840709 0.000000 0.000000 0.000000 4.923573 -0.109873 -7.358404 -4.819641 6.037715 46.799337 -0.654014 1.248761 -42.911327 0.000000 0.000000 0.000000 -1.586758 0.329113 24.824672 0.000000 0.000000 0.000000 17.152668 -3.072247 0.941041 -6.751814 1.008563 4.946425 -9.141975 -5.287920 -3.848618 0.000000 0.000000 0.000000 -12.337499 -0.818832 2.757339 9.178130 -0.949746 8.350785 3.676230 2.384457 -1.419068 
0.067946 0.944030 0.023145 -1.637806 -2.911338 -0.567792 0.000000 0.000000 0.000000 -13.309946 0.693576 -1.002581 9.368676 -1.585250 7.953385 0.946121 -6.993578 -5.205078 0.000000 0.000000 0.000000 3.609013 3.741979 -19.360163 -7.354924 6.483118 36.031477 -0.738613 4.121866 -4.172284 0.000000 0.000000 0.000000 4.587507 -0.195362 -6.241463 -4.316437 5.739227 47.185530 -0.970528 0.920311 -43.095427 0.000000 0.000000 0.000000 -1.289215 0.112213 25.295725 0.000000 0.000000 0.000000 17.324449 -3.430300 0.703298 -6.689269 0.999926 4.937970 -8.977595 -5.082300 -3.473602 0.000000 0.000000 0.000000 -12.102197 -0.922424 2.777060 9.001623 -0.939558 8.293039 3.332915 2.305196 -1.716493 
